<svg xmlns="http://www.w3.org/2000/svg" viewBox="0 0 430 98"><defs><style>.cls-1{fill:#ededed;}.cls-2{font-size:76px;font-family:MyriadPro-Regular, Myriad Pro;}.cls-3{letter-spacing:-0.02em;}.cls-4{letter-spacing:-0.01em;}.cls-5{letter-spacing:-0.04em;}.cls-6{letter-spacing:-0.02em;}.cls-7{letter-spacing:0em;}.cls-8{letter-spacing:0.02em;}.cls-9{fill:none;stroke:#ededed;stroke-miterlimit:10;stroke-width:3px;}</style></defs><title>logos4</title><g id="_4" data-name="4"><rect class="cls-1" x="0.24" y="0.83" width="212.43" height="96.35"/><text class="cls-2" transform="translate(7.43 70.28)"><tspan class="cls-3">P</tspan><tspan x="39.22" y="0">id</tspan><tspan class="cls-4" x="99.86" y="0">g</tspan><tspan x="141.89" y="0">in</tspan><tspan class="cls-5" x="201.85" y="0"> </tspan><tspan class="cls-6" x="215.23" y="0">W</tspan><tspan class="cls-7" x="278.31" y="0">i</tspan><tspan class="cls-8" x="296.09" y="0">k</tspan><tspan x="333.03" y="0">i</tspan></text><path class="cls-1" d="M415.57,55.42H413.3l-.78-.79a18.3,18.3,0,0,0,4.47-12,18.53,18.53,0,1,0-6.47,14l.78.79v2.24l14.22,14.2,4.24-4.24Zm-17.08,0A12.81,12.81,0,1,1,411.3,42.61,12.81,12.81,0,0,1,398.49,55.42Z"/><line class="cls-9" x1="366.69" y1="6.55" x2="365.76" y2="91.45"/></g></svg>